<svg width="28" height="61" viewBox="0 0 28 61" fill="none" xmlns="http://www.w3.org/2000/svg">
<path d="M14.5342 58.4948C14.1124 59.2078 14.3485 60.1278 15.0616 60.5495C15.7746 60.9713 16.6945 60.7351 17.1163 60.0221L14.5342 58.4948ZM20.9027 50.6742L22.1938 51.4379L20.9027 50.6742ZM10.5959 10.7578L9.83597 12.0511L10.5959 10.7578ZM1.62013 4.25308C0.818307 4.46135 0.33713 5.28018 0.545392 6.082L3.93919 19.1484C4.14745 19.9503 4.96629 20.4314 5.76811 20.2232C6.56993 20.0149 7.05111 19.1961 6.84285 18.3943L3.82614 6.77965L15.4408 3.76294C16.2426 3.55468 16.7238 2.73584 16.5155 1.93402C16.3072 1.1322 15.4884 0.651023 14.6866 0.859282L1.62013 4.25308ZM17.1163 60.0221L22.1938 51.4379L19.6116 49.9106L14.5342 58.4948L17.1163 60.0221ZM11.3559 9.46459L2.75717 4.41167L1.23726 6.99815L9.83597 12.0511L11.3559 9.46459ZM22.1938 51.4379C27.0209 43.2768 28.5405 35.2163 26.6516 27.9009C24.7628 20.5856 19.5307 14.2684 11.3559 9.46459L9.83597 12.0511C17.5052 16.5578 22.1045 22.2901 23.7469 28.651C25.3894 35.0119 24.1403 42.2542 19.6116 49.9106L22.1938 51.4379Z" fill="#18A187"/>
</svg>
