<svg width="222" height="222" viewBox="0 0 222 222" fill="none" xmlns="http://www.w3.org/2000/svg">
<rect width="8.02031" height="8.02031" rx="4.01016" transform="matrix(0.707107 0.707106 -0.707107 0.707106 168.296 48.302)" fill="#9CA3AF"/>
<rect width="8.02031" height="8.02031" rx="4.01016" transform="matrix(0.707107 0.707106 -0.707107 0.707106 53.4541 163.144)" fill="#9CA3AF"/>
<rect width="8.02031" height="8.02031" rx="4.01016" transform="matrix(-0.707107 0.707106 -0.707107 -0.707106 173.968 168.816)" fill="#9CA3AF"/>
<rect width="8.02031" height="8.02031" rx="4.01016" transform="matrix(-0.707107 0.707106 -0.707107 -0.707106 59.1255 53.973)" fill="#9CA3AF"/>
<rect x="114.885" y="196.61" width="8.02032" height="8.02031" rx="4.01015" transform="rotate(-180 114.885 196.61)" fill="#9CA3AF"/>
<rect x="114.885" y="34.1989" width="8.02032" height="8.02031" rx="4.01015" transform="rotate(-180 114.885 34.1989)" fill="#9CA3AF"/>
<rect x="196.091" y="107.384" width="8.02031" height="8.02032" rx="4.01015" transform="rotate(90 196.091 107.384)" fill="#9CA3AF"/>
<rect x="33.6799" y="107.384" width="8.02031" height="8.02032" rx="4.01015" transform="rotate(90 33.6799 107.384)" fill="#9CA3AF"/>
<rect width="8.02031" height="8.02032" rx="4.01015" transform="matrix(0.375721 0.926733 -0.926733 0.37572 188.341 75.6608)" fill="#9CA3AF"/>
<rect width="8.02031" height="8.02032" rx="4.01015" transform="matrix(0.375721 0.926733 -0.926733 0.37572 37.8291 136.682)" fill="#9CA3AF"/>
<rect width="8.02032" height="8.02031" rx="4.01015" transform="matrix(-0.926733 0.37572 -0.375721 -0.926733 146.609 188.86)" fill="#9CA3AF"/>
<rect width="8.02032" height="8.02031" rx="4.01015" transform="matrix(-0.926733 0.37572 -0.375721 -0.926733 85.5876 38.348)" fill="#9CA3AF"/>
<rect width="8.02032" height="8.02031" rx="4.01015" transform="matrix(-0.920974 -0.389624 0.389625 -0.920974 81.3662 191.438)" fill="#9CA3AF"/>
<rect width="8.02032" height="8.02031" rx="4.01015" transform="matrix(-0.920974 -0.389624 0.389625 -0.920974 144.646 41.8618)" fill="#9CA3AF"/>
<rect width="8.02031" height="8.02032" rx="4.01015" transform="matrix(-0.389625 0.920974 -0.920974 -0.389624 190.92 140.903)" fill="#9CA3AF"/>
<rect width="8.02031" height="8.02032" rx="4.01015" transform="matrix(-0.389625 0.920974 -0.920974 -0.389624 41.3428 77.6238)" fill="#9CA3AF"/>
<rect x="219.484" y="83.4104" width="10.5496" height="10.5496" rx="5.27479" transform="rotate(78.197 219.484 83.4104)" fill="#B4C1D4"/>
<rect x="10.3716" y="127.107" width="10.5496" height="10.5496" rx="5.27479" transform="rotate(78.197 10.3716 127.107)" fill="#B4C1D4"/>
<rect x="138.934" y="220.142" width="10.5496" height="10.5496" rx="5.27479" transform="rotate(168.197 138.934 220.142)" fill="#B4C1D4"/>
<rect x="95.2373" y="11.0289" width="10.5496" height="10.5496" rx="5.27479" transform="rotate(168.197 95.2373 11.0289)" fill="#B4C1D4"/>
<rect width="10.0254" height="11.0279" rx="5.0127" transform="matrix(-0.836793 -0.547519 0.54752 -0.836792 53.3972 208.098)" fill="#B4C1D4"/>
<rect width="10.0254" height="11.0279" rx="5.0127" transform="matrix(-0.836793 -0.547519 0.54752 -0.836792 170.315 29.4084)" fill="#B4C1D4"/>
<rect width="10.0254" height="11.0279" rx="5.01269" transform="matrix(-0.54752 0.836792 -0.836793 -0.547519 207.384 168.678)" fill="#B4C1D4"/>
<rect width="10.0254" height="11.0279" rx="5.01269" transform="matrix(-0.54752 0.836792 -0.836793 -0.547519 28.6943 51.7599)" fill="#B4C1D4"/>
<rect x="221.843" y="127.959" width="10.5496" height="10.5496" rx="5.27479" transform="rotate(101.128 221.843 127.959)" fill="#B4C1D4"/>
<rect x="12.2307" y="86.7284" width="10.5496" height="10.5496" rx="5.27479" transform="rotate(101.128 12.2307 86.7284)" fill="#B4C1D4"/>
<rect x="94.3853" y="222.501" width="10.5496" height="10.5496" rx="5.27479" transform="rotate(-168.872 94.3853 222.501)" fill="#B4C1D4"/>
<rect x="135.617" y="12.8885" width="10.5496" height="10.5496" rx="5.27479" transform="rotate(-168.872 135.617 12.8885)" fill="#B4C1D4"/>
<rect width="10.5496" height="10.5496" rx="5.2748" transform="matrix(-0.557338 -0.830286 0.830287 -0.557337 20.7168 178.352)" fill="#B4C1D4"/>
<rect width="10.5496" height="10.5496" rx="5.2748" transform="matrix(-0.557338 -0.830286 0.830287 -0.557337 198.09 59.2888)" fill="#B4C1D4"/>
<rect width="10.5496" height="10.5496" rx="5.2748" transform="matrix(-0.830287 0.557337 -0.557338 -0.830286 177.695 201.628)" fill="#B4C1D4"/>
<rect width="10.5496" height="10.5496" rx="5.2748" transform="matrix(-0.830287 0.557337 -0.557338 -0.830286 58.6314 24.2543)" fill="#B4C1D4"/>
<rect opacity="0.1" width="122.31" height="122.31" rx="61.1549" transform="matrix(1 0 -1.68587e-06 1 50.2914 50.8107)" fill="#6B7280"/>
<rect x="58.5481" y="59.2622" width="106.269" height="105.267" rx="52.6333" fill="#445A78"/>
<path d="M88.4574 111.985H88.456V112.015V139H122.943L95.9429 112L88.4574 111.985Z" fill="white"/>
<path d="M88.4574 111.985H88.456V112.015V139H122.943L95.9429 112L88.4574 111.985Z" fill="url(#paint0_linear_3414_18808)"/>
<path d="M125.252 111.985L110.59 126.648L122.882 138.94L137.544 124.277L125.252 111.985Z" fill="url(#paint1_linear_3414_18808)"/>
<path d="M122.882 85.0318L110.59 97.3237L125.253 111.986L137.545 99.694L122.882 85.0318Z" fill="url(#paint2_linear_3414_18808)"/>
<path d="M88.456 119.487L122.943 85H88.456V111.985H88.4574L88.456 119.487Z" fill="white"/>
<defs>
<linearGradient id="paint0_linear_3414_18808" x1="105.699" y1="111.985" x2="105.699" y2="139" gradientUnits="userSpaceOnUse">
<stop stop-color="#D2D2D2"/>
<stop offset="1" stop-color="white" stop-opacity="0"/>
</linearGradient>
<linearGradient id="paint1_linear_3414_18808" x1="117.921" y1="119.317" x2="130.213" y2="131.609" gradientUnits="userSpaceOnUse">
<stop stop-color="#E7E7E7"/>
<stop offset="1" stop-color="white"/>
</linearGradient>
<linearGradient id="paint2_linear_3414_18808" x1="116.736" y1="91.1777" x2="131.399" y2="105.84" gradientUnits="userSpaceOnUse">
<stop stop-color="#D6D6D6"/>
<stop offset="1" stop-color="white"/>
</linearGradient>
</defs>
</svg>
