<svg width="33" height="32" viewBox="0 0 33 32" fill="none" xmlns="http://www.w3.org/2000/svg">
<path d="M16.6 20C19.3614 20 21.6 17.7614 21.6 15C21.6 12.2386 19.3614 10 16.6 10C13.8386 10 11.6 12.2386 11.6 15C11.6 17.7614 13.8386 20 16.6 20Z" stroke="#4A5568" stroke-width="2" stroke-miterlimit="10"/>
<path d="M8.57501 24.925C9.3274 23.4431 10.4755 22.1984 11.8919 21.3289C13.3084 20.4595 14.938 19.9993 16.6 19.9993C18.262 19.9993 19.8916 20.4595 21.3081 21.3289C22.7246 22.1984 23.8726 23.4431 24.625 24.925" stroke="#4A5568" stroke-width="2" stroke-linecap="round" stroke-linejoin="round"/>
<path d="M22.6 7H28.6" stroke="#4A5568" stroke-width="2" stroke-linecap="round" stroke-linejoin="round"/>
<path d="M25.6 4V10" stroke="#4A5568" stroke-width="2" stroke-linecap="round" stroke-linejoin="round"/>
<path d="M28.45 14.1125C28.5511 14.7366 28.6013 15.3678 28.6 16C28.6 18.3734 27.8962 20.6935 26.5776 22.6669C25.2591 24.6403 23.3849 26.1783 21.1922 27.0866C18.9995 27.9948 16.5867 28.2325 14.2589 27.7694C11.9312 27.3064 9.79296 26.1635 8.11473 24.4853C6.4365 22.8071 5.29361 20.6689 4.83059 18.3411C4.36757 16.0133 4.60521 13.6005 5.51346 11.4078C6.42171 9.21511 7.95978 7.34096 9.93317 6.02239C11.9066 4.70381 14.2266 4.00002 16.6 4.00002C17.2322 3.99878 17.8635 4.04895 18.4875 4.15002" stroke="#4A5568" stroke-width="2" stroke-linecap="round" stroke-linejoin="round"/>
</svg>
