<svg width="108" height="117" viewBox="0 0 108 117" fill="none" xmlns="http://www.w3.org/2000/svg">
<g opacity="0.5">
<path d="M1.66083 94.7416L69.1239 56.3388C70.9519 55.2892 73.1936 55.2189 75.0861 56.1512L105.127 73.2785C106.679 74.391 106.982 76.6179 105.269 77.603L38.0608 115.9C36.264 116.933 34.0594 117.005 32.1974 116.091L2.16194 98.993C0.00802183 97.7328 0.129399 95.7537 1.66083 94.7416Z" fill="#D5D5D5"/>
</g>
<path d="M105.653 66.8494L105.63 66.8358C105.598 66.8111 105.569 66.785 105.536 66.7611L75.4957 49.6339C73.6037 48.7011 71.362 48.7719 69.5339 49.8214L2.07048 88.2242C1.95262 88.302 1.84608 88.3876 1.74539 88.4763C-0.55645 90.2401 -0.232129 93.9691 2.39832 95.4685L2.44437 95.4927C2.47364 95.5107 2.49861 95.5298 2.52867 95.5474L32.5641 112.645C34.4261 113.559 36.6308 113.488 38.4276 112.454L105.635 74.1574C105.763 74.0835 105.877 74.0007 105.983 73.9139C108.535 72.2309 108.368 68.3957 105.653 66.8494Z" fill="#FEBD33"/>
<path d="M105.731 66.7166L105.669 66.8221L105.668 66.8217L105.726 66.7154L105.691 66.6869C105.67 66.6701 105.65 66.6529 105.614 66.6283L75.5654 49.4968C73.6183 48.5374 71.3344 48.6097 69.4545 49.689L1.98284 88.0969C1.87161 88.1707 1.7596 88.2571 1.64877 88.3552C0.553268 89.1949 -0.0418962 90.5532 0.0576255 91.988C0.162608 93.5038 1.00833 94.855 2.32355 95.6049L2.39302 95.6455C2.41097 95.6576 2.42892 95.6693 2.44961 95.6814L32.4936 112.783C33.3901 113.224 34.3588 113.442 35.3255 113.441C36.4249 113.44 37.5219 113.155 38.5054 112.589L105.713 74.291C105.836 74.2207 105.953 74.1386 106.069 74.0429C107.297 73.2329 108.001 71.8629 107.951 70.3772C107.9 68.8474 107.07 67.4794 105.731 66.7166ZM37.9251 104.606C37.9251 104.606 38.8223 108.353 38.1175 110.158C37.4177 111.95 35.5908 112.251 35.562 112.255C34.5227 112.304 33.4713 112.097 32.5112 111.625L2.47576 94.5279C2.4457 94.5104 2.42073 94.4916 2.39146 94.4736L2.34541 94.449C1.34552 93.8789 0.688693 92.9848 0.374526 92.0005C0.373746 91.9892 0.370625 91.9783 0.369839 91.9669C0.277345 90.6344 0.827245 89.3754 1.84898 88.592C1.95865 88.4954 2.0566 88.4196 2.14832 88.3587L69.6118 49.9555C69.9915 49.7375 70.3919 49.5745 70.7998 49.4432C71.5651 49.2443 73.8029 48.8739 76.0665 50.5284C76.2788 50.6835 76.4653 50.8195 76.6375 50.9445C76.6191 50.9961 76.5899 51.0465 76.536 51.0946L37.9251 104.606Z" fill="#3D3F3F"/>
<path d="M46.0703 107.286L45.0575 107.859C44.7648 108.026 44.5267 107.849 44.5263 107.464C44.5259 107.079 44.7628 106.632 45.0555 106.465L46.0687 105.892C46.3614 105.725 46.5995 105.901 46.5999 106.286C46.6003 106.671 46.363 107.119 46.0703 107.286Z" fill="#FEBD33"/>
<path d="M45.055 106.472C44.7623 106.639 44.525 107.086 44.5254 107.471C44.5254 107.563 44.5508 107.639 44.5754 107.705C44.6191 107.695 44.6534 107.683 44.701 107.656L45.7142 107.083C46.0069 106.916 46.2438 106.469 46.2434 106.084C46.2434 105.992 46.2289 105.913 46.2044 105.847C46.1603 105.857 46.1154 105.872 46.0678 105.899L45.055 106.472Z" fill="#E9E9E9"/>
<path d="M44.5253 107.795L44.5018 107.732C44.4757 107.661 44.4472 107.576 44.4472 107.472C44.4468 107.056 44.6962 106.587 45.0154 106.405L46.0286 105.833C46.0778 105.805 46.1297 105.785 46.1874 105.773L46.2542 105.758L46.2776 105.822C46.3065 105.899 46.3213 105.988 46.3213 106.084C46.3217 106.5 46.0723 106.968 45.7531 107.151L44.7399 107.723C44.688 107.753 44.6466 107.77 44.592 107.781L44.5253 107.795ZM45.0939 106.539C44.823 106.693 44.6033 107.111 44.6037 107.471C44.6037 107.522 44.6127 107.567 44.6248 107.609C44.6361 107.604 44.6482 107.598 44.6619 107.59L45.675 107.017C45.9455 106.863 46.1656 106.444 46.1652 106.085C46.1652 106.035 46.1605 105.988 46.1511 105.945C46.1359 105.951 46.1215 105.958 46.107 105.966L45.0939 106.539Z" fill="#3D3F3F"/>
<path d="M46.5245 107.647C46.2318 107.815 45.9937 107.638 45.9933 107.253C45.9929 106.868 46.2298 106.42 46.5225 106.253C46.8152 106.086 47.0533 106.263 47.0537 106.648C47.0541 107.033 46.8172 107.48 46.5245 107.647Z" fill="#FEBD33"/>
<path d="M46.3115 107.804C46.2463 107.804 46.1843 107.788 46.1281 107.757C45.9821 107.674 45.8978 107.491 45.8974 107.254C45.897 106.833 46.1499 106.359 46.4735 106.175C46.6308 106.085 46.7873 106.074 46.9145 106.146C47.0608 106.23 47.1447 106.413 47.1451 106.649C47.1455 107.07 46.893 107.545 46.5691 107.729C46.4809 107.779 46.3935 107.804 46.3115 107.804ZM46.7311 106.284C46.6717 106.284 46.6132 106.309 46.5679 106.335C46.3057 106.484 46.0848 106.905 46.0852 107.254C46.0855 107.422 46.1355 107.547 46.2221 107.597C46.3068 107.644 46.4063 107.608 46.475 107.568L46.4754 107.569C46.7373 107.42 46.9582 106.998 46.9578 106.649C46.9574 106.484 46.9063 106.356 46.8208 106.307C46.7919 106.291 46.7611 106.284 46.7311 106.284Z" fill="#3D3F3F"/>
<path d="M46.0082 107.261C46.0078 106.876 46.2447 106.428 46.5374 106.261C46.6619 106.19 46.7754 106.185 46.866 106.227L46.8668 106.226L46.4995 105.96C46.4886 105.951 46.4699 105.94 46.4578 105.932L46.4246 105.912L46.3984 105.896C46.3055 105.844 46.2123 105.859 46.0804 105.934C45.7877 106.101 45.5508 106.549 45.5511 106.934C45.5515 107.12 45.6081 107.257 45.6995 107.33L45.6815 107.314L45.703 107.334C45.7065 107.336 45.7326 107.354 45.7361 107.357L46.1498 107.65C46.0628 107.576 46.0085 107.443 46.0082 107.261Z" fill="#E9E9E9"/>
<path d="M46.0939 107.725L45.6798 107.431C45.6782 107.43 45.6466 107.408 45.6423 107.404L45.6302 107.393C45.5178 107.298 45.4565 107.135 45.4561 106.933C45.4558 106.512 45.7083 106.038 46.0322 105.853C46.1426 105.791 46.2894 105.728 46.4435 105.815L46.506 105.853C46.5239 105.864 46.5466 105.878 46.5602 105.89L46.9798 106.193L46.9154 106.351L46.8244 106.31C46.739 106.27 46.6461 106.305 46.5833 106.34C46.321 106.49 46.1005 106.911 46.1009 107.26C46.1009 107.406 46.1399 107.52 46.2102 107.58L46.0939 107.725ZM45.7598 107.26L45.7871 107.279L45.9206 107.374C45.9159 107.338 45.9132 107.299 45.9132 107.26C45.9128 106.839 46.1657 106.365 46.4892 106.181C46.5208 106.163 46.5524 106.148 46.584 106.136L46.4424 106.034C46.4283 106.023 46.4166 106.016 46.4084 106.011L46.3475 105.973C46.3101 105.953 46.2597 105.937 46.1262 106.013C45.864 106.163 45.6431 106.584 45.6435 106.933C45.6435 107.072 45.6802 107.184 45.7442 107.245L45.7602 107.26L45.7598 107.26Z" fill="#3D3F3F"/>
<path d="M48.0658 106.178C48.0654 105.793 48.3023 105.346 48.5951 105.179L51.6275 103.449C51.7684 103.368 51.896 103.37 51.9912 103.433L51.4889 103.092L51.4409 103.06C51.334 102.979 51.2029 102.961 51.0452 103.051L48.0128 104.781C47.7201 104.948 47.4832 105.396 47.4836 105.781C47.4839 105.967 47.514 106.082 47.6049 106.156L47.6311 106.177L47.6342 106.18C47.6393 106.183 47.6443 106.187 47.6498 106.19L48.2212 106.582C48.1256 106.51 48.0662 106.37 48.0658 106.178Z" fill="#E9E9E9"/>
<path d="M48.1676 106.66L47.5447 106.229C47.4089 106.119 47.3902 105.949 47.3898 105.782C47.3894 105.362 47.6423 104.888 47.9658 104.703L50.9979 102.973C51.2242 102.845 51.3944 102.91 51.4978 102.988L52.0438 103.359L52.0442 103.359H52.0446L51.938 103.512H51.9377C51.8502 103.453 51.7464 103.49 51.6746 103.531L48.6422 105.261C48.3799 105.41 48.159 105.831 48.1594 106.18C48.1598 106.334 48.2031 106.454 48.2781 106.51L48.1676 106.66ZM51.2469 103.086C51.2043 103.086 51.1532 103.098 51.0923 103.133L48.0599 104.863C47.7976 105.013 47.5767 105.434 47.5771 105.782C47.5775 105.949 47.6029 106.036 47.6646 106.086L47.6911 106.108L47.9803 106.306C47.9748 106.267 47.9721 106.224 47.9721 106.18C47.9717 105.759 48.2242 105.285 48.5477 105.101L51.5802 103.371C51.6098 103.354 51.6395 103.34 51.6691 103.329L51.3878 103.138C51.353 103.112 51.3085 103.086 51.2469 103.086Z" fill="#3D3F3F"/>
<path d="M51.6289 104.843L48.5964 106.573C48.3037 106.74 48.0657 106.563 48.0653 106.178C48.0649 105.793 48.3018 105.346 48.5945 105.179L51.6269 103.449C51.9196 103.281 52.1577 103.458 52.1581 103.843C52.1585 104.228 51.9216 104.676 51.6289 104.843Z" fill="#FEBD33"/>
<path d="M48.3908 106.73C48.3256 106.73 48.2639 106.714 48.2081 106.682C48.0618 106.599 47.9775 106.416 47.9771 106.18C47.9767 105.759 48.2292 105.285 48.5527 105.1L51.5851 103.37C51.7436 103.28 51.8993 103.27 52.0265 103.342C52.1725 103.425 52.2568 103.608 52.2572 103.845C52.2576 104.266 52.0047 104.74 51.6812 104.924L48.6487 106.654C48.5609 106.704 48.4731 106.73 48.3908 106.73ZM51.8427 103.48C51.7834 103.48 51.7249 103.505 51.6796 103.53L48.6472 105.26C48.3849 105.41 48.164 105.831 48.1644 106.18C48.1648 106.345 48.2159 106.474 48.3014 106.522C48.3869 106.57 48.4864 106.533 48.5547 106.494L51.5871 104.764C51.849 104.615 52.0699 104.194 52.0695 103.845C52.0691 103.677 52.0191 103.552 51.9325 103.502C51.9036 103.486 51.8732 103.48 51.8427 103.48Z" fill="#3D3F3F"/>
<path d="M52.9949 103.343C52.9945 102.958 53.2318 102.51 53.5245 102.344L56.5569 100.614C56.6978 100.533 56.825 100.534 56.9203 100.598L56.4184 100.257L56.37 100.224C56.263 100.143 56.1327 100.126 55.9746 100.216L52.9422 101.946C52.6495 102.113 52.4122 102.56 52.4126 102.945C52.413 103.132 52.4434 103.247 52.5344 103.32L52.5601 103.342L52.5632 103.344C52.5683 103.348 52.5738 103.351 52.5789 103.355L53.1502 103.747C53.0546 103.675 52.9953 103.535 52.9949 103.343Z" fill="#E9E9E9"/>
<path d="M53.0954 103.824L52.4729 103.393C52.3367 103.283 52.3179 103.113 52.3175 102.947C52.3171 102.526 52.57 102.052 52.8936 101.867L55.926 100.137C56.1524 100.008 56.3225 100.074 56.4259 100.152L56.9715 100.523H56.9719L56.8658 100.676C56.7784 100.617 56.6742 100.654 56.6023 100.695L53.5699 102.425C53.3077 102.575 53.0872 102.995 53.0875 103.344C53.0879 103.498 53.1309 103.618 53.2058 103.674L53.0954 103.824ZM56.1746 100.25C56.1317 100.25 56.0806 100.262 56.0201 100.297L52.9876 102.027C52.7254 102.177 52.5049 102.598 52.5053 102.947C52.5056 103.113 52.5306 103.2 52.5923 103.25L52.6188 103.272L52.9084 103.471C52.9029 103.431 52.8998 103.388 52.8998 103.344C52.8994 102.924 53.1523 102.45 53.4759 102.265L56.5083 100.535C56.538 100.518 56.5672 100.504 56.5969 100.493L56.3155 100.302C56.2808 100.276 56.2359 100.25 56.1746 100.25Z" fill="#3D3F3F"/>
<path d="M56.5561 102.008L53.5237 103.738C53.231 103.905 52.9929 103.728 52.9925 103.343C52.9921 102.958 53.2294 102.511 53.5221 102.344L56.5545 100.614C56.8473 100.447 57.0849 100.624 57.0853 101.009C57.0857 101.393 56.8488 101.841 56.5561 102.008Z" fill="#FEBD33"/>
<path d="M53.3118 103.893C53.2466 103.893 53.1845 103.877 53.1287 103.846C52.9824 103.762 52.8981 103.579 52.8977 103.343C52.8973 102.922 53.1502 102.448 53.4737 102.264L56.5062 100.534C56.6646 100.444 56.8199 100.433 56.9472 100.505C57.0931 100.589 57.1774 100.771 57.1778 101.008C57.1782 101.429 56.9253 101.904 56.6018 102.088L53.5697 103.817C53.4819 103.867 53.3941 103.893 53.3118 103.893ZM56.7637 100.643C56.7044 100.643 56.6455 100.668 56.6002 100.694L53.5678 102.424C53.3055 102.573 53.085 102.994 53.0854 103.343C53.0858 103.508 53.1369 103.637 53.2224 103.685C53.3079 103.733 53.407 103.697 53.4753 103.658L56.5081 101.927C56.77 101.778 56.9909 101.357 56.9905 101.008C56.9905 100.84 56.9405 100.715 56.8535 100.666C56.8246 100.65 56.7942 100.643 56.7637 100.643Z" fill="#3D3F3F"/>
<path d="M2.02159 88.7655L69.4846 50.3627C71.3127 49.3132 73.5544 49.2428 75.4469 50.1752L105.487 67.3024C107.039 68.4149 107.342 70.6418 105.629 71.6269L38.4216 109.924C36.6248 110.958 34.4201 111.029 32.5581 110.115L2.5227 93.0173C0.368785 91.7571 0.490162 89.7776 2.02159 88.7655Z" fill="#E9E9E9"/>
<path d="M38.5691 109.551L105.777 71.254C106.543 70.8136 106.988 70.1079 107.03 69.2682C107.059 68.7172 106.909 68.158 106.617 67.659C106.38 67.2546 106.049 66.89 105.644 66.5993L75.5892 49.4635C73.6254 48.4952 71.3271 48.5678 69.435 49.6541L1.97196 88.0569C1.16097 88.5919 0.716059 89.3695 0.739087 90.1967C0.765236 91.1361 1.38031 92.0044 2.47151 92.6436L32.5136 109.744C33.4022 110.181 34.3877 110.41 35.3688 110.409C36.4889 110.407 37.5961 110.11 38.5691 109.551ZM106.637 69.2486C106.602 69.9532 106.226 70.5463 105.579 70.9183L38.3712 109.215C36.6259 110.219 34.5059 110.289 32.6997 109.402L2.67055 92.3088C2.09724 91.9731 1.67145 91.5722 1.41504 91.1345C1.23825 90.8325 1.14185 90.5136 1.13287 90.1866C1.11336 89.4961 1.49388 88.84 2.17724 88.3871L69.6325 49.9894C71.409 48.9691 73.5661 48.9008 75.4023 49.805L105.429 66.9244C106.215 67.4883 106.681 68.3808 106.637 69.2486Z" fill="#3D3F3F"/>
<path d="M103.254 67.5164L74.1642 51.064C72.8385 50.4106 71.2676 50.4602 69.9867 51.1957L6.99193 87.0468C5.91907 87.7556 5.83399 89.1424 7.34318 90.0255L36.4295 106.457C37.7342 107.098 39.2789 107.048 40.5379 106.324L103.354 70.5467C104.554 69.8562 104.497 68.1291 103.254 67.5164Z" fill="#0D5204"/>
<path d="M14.8208 97.2438L14.7842 97.2231C14.5914 97.1144 14.6144 96.9234 14.8361 96.796C15.0577 96.6686 15.3934 96.6534 15.5862 96.762L15.6229 96.7827C15.8156 96.8913 15.7922 97.0824 15.5709 97.2098C15.3493 97.3372 15.0136 97.3524 14.8208 97.2438Z" fill="#FEBD33"/>
<path d="M22.593 101.616L15.9119 97.8574C15.7191 97.7488 15.7421 97.5577 15.9638 97.4303C16.1855 97.3029 16.5211 97.2877 16.7139 97.3963L23.395 101.155C23.5878 101.264 23.5648 101.455 23.3431 101.582C23.1218 101.71 22.7858 101.725 22.593 101.616Z" fill="#FEBD33"/>
<path d="M15.1444 97.142C15.3259 97.142 15.5031 97.0971 15.6436 97.0162C15.8063 96.9224 15.8988 96.7884 15.8984 96.6493C15.898 96.5926 15.8836 96.5391 15.8551 96.4907C15.8208 96.432 15.7665 96.3812 15.6947 96.3406L15.658 96.3199C15.4211 96.187 15.0277 96.2023 14.7623 96.3547C14.6 96.4481 14.5075 96.5813 14.5079 96.7208C14.5083 96.8462 14.5801 96.9557 14.7116 97.0299L14.7487 97.051C14.8537 97.11 14.9942 97.1424 15.1444 97.142ZM14.8927 96.8021L14.8556 96.7814C14.8306 96.7669 14.8119 96.7509 14.8033 96.736C14.7998 96.7302 14.7982 96.7247 14.7982 96.7196C14.7982 96.6931 14.8322 96.6462 14.9091 96.602C15.0035 96.5477 15.1362 96.5153 15.2638 96.5153C15.3634 96.5149 15.4523 96.5336 15.514 96.5684L15.5503 96.5887C15.585 96.6091 15.6084 96.6333 15.6077 96.6505C15.6073 96.6782 15.5733 96.7247 15.4972 96.7681C15.322 96.8697 15.0398 96.8853 14.8927 96.8021Z" fill="#3D3F3F"/>
<path d="M23.4157 101.389C23.578 101.295 23.6705 101.161 23.6701 101.022C23.6697 100.966 23.6553 100.912 23.6268 100.864C23.5925 100.805 23.5382 100.754 23.4664 100.714L16.7853 96.9546C16.5496 96.8217 16.1562 96.8366 15.89 96.989C15.7269 97.0828 15.634 97.2164 15.6348 97.3559C15.6356 97.4809 15.7086 97.5911 15.8393 97.6646L22.52 101.424C22.6262 101.483 22.7635 101.515 22.9161 101.515C23.0964 101.515 23.2736 101.47 23.4157 101.389ZM22.6644 101.175L15.9829 97.4153C15.9576 97.4012 15.9392 97.3852 15.9306 97.3707C15.9275 97.3653 15.9256 97.3594 15.9256 97.3547C15.9252 97.3274 15.9595 97.2805 16.036 97.2371C16.132 97.1816 16.2616 97.1496 16.3912 97.1496C16.4911 97.1496 16.5797 97.1687 16.6409 97.2035L23.322 100.963C23.3564 100.981 23.379 101.005 23.3794 101.023C23.3794 101.05 23.345 101.097 23.2689 101.141C23.0941 101.242 22.8119 101.258 22.6644 101.175Z" fill="#3D3F3F"/>
<g opacity="0.397006">
<path d="M44.315 65.4453C62.5972 57.6723 80.5909 58.7943 84.4706 67.9493C88.3503 77.1042 76.6566 90.8484 58.3744 98.6214C40.0923 106.394 22.0985 105.272 18.2188 96.1174C14.3391 86.9625 26.0328 73.2183 44.315 65.4453Z" fill="#6097B0"/>
</g>
<path d="M51.2104 9.92416C71.1073 10.2739 86.9489 26.4504 86.5938 46.0551C86.2386 65.6597 69.8214 81.2685 49.9245 80.9188C30.0276 80.5691 14.186 64.3925 14.5411 44.7879C14.8963 25.1832 31.3135 9.57443 51.2104 9.92416Z" fill="#15A600"/>
<path d="M86.777 46.0585C86.4206 65.7323 69.8863 81.4525 49.9192 81.1012C29.9524 80.7499 13.998 64.4585 14.3543 44.7847C14.7106 25.1108 31.2454 9.39069 51.2121 9.74198C71.1793 10.0933 87.1333 26.3847 86.777 46.0585ZM14.7243 44.7913C14.3715 64.2639 30.1627 80.3892 49.9258 80.7366C69.6888 81.084 86.0542 65.5245 86.407 46.0519C86.7598 26.5793 70.9685 10.4539 51.2055 10.1066C31.4424 9.75917 15.0771 25.3187 14.7243 44.7913Z" fill="#3D3F3F"/>
<mask id="mask0_3414_18929" style="mask-type:alpha" maskUnits="userSpaceOnUse" x="14" y="9" width="73" height="72">
<path d="M51.2127 9.92294C71.1096 10.2731 86.9512 26.4492 86.596 46.0539C86.2409 65.6585 69.8236 81.2673 49.9267 80.9176C30.0298 80.5678 14.1882 64.3913 14.5433 44.7866C14.8985 25.182 31.3157 9.57322 51.2127 9.92294Z" fill="white"/>
</mask>
<g mask="url(#mask0_3414_18929)">
<path d="M59.9868 -62.1918C63.8251 -63.0436 67.6581 -63.5941 71.4623 -63.8583C73.5575 -64.0032 75.6399 -64.0612 77.7133 -64.0332C87.6926 -63.9114 97.3825 -61.8408 106.311 -58.113C109.641 -56.7235 112.869 -55.1035 115.962 -53.2653C119.532 -51.1528 122.933 -48.751 126.124 -46.0903C126.918 -45.4302 127.699 -44.7515 128.465 -44.0571C129.279 -43.3216 130.073 -42.5696 130.855 -41.7989C141.102 -31.7022 148.645 -18.621 151.981 -3.52154C152.753 -0.0241504 153.274 3.47315 153.557 6.94704C154.162 14.3385 153.685 21.6299 152.247 28.6387C151.127 34.0883 149.431 39.3699 147.202 44.3975L147.181 44.4462C145.939 47.2385 144.539 49.9536 142.979 52.5763C142.973 52.5857 142.967 52.595 142.961 52.6043C140.418 56.8936 137.457 60.9394 134.126 64.6674C130.274 68.987 125.922 72.8895 121.131 76.2732C119.593 77.3667 118.011 78.402 116.383 79.3755C109.417 83.574 101.664 86.7268 93.29 88.5853C91.449 88.9938 89.6088 89.3342 87.7726 89.6017C82.3597 90.4029 76.9761 90.6134 71.6919 90.2777C69.9239 90.166 68.1708 89.9949 66.4287 89.7654C55.6604 88.3343 45.4241 84.6406 36.3386 79.0792C33.9755 77.6312 31.6888 76.0582 29.4907 74.3615C24.0361 70.1588 19.1302 65.2182 14.9406 59.6465C14.2105 58.6762 13.4999 57.6857 12.8202 56.6723L12.8156 56.6693C12.6169 56.3853 12.4212 56.0967 12.2331 55.8063C11.933 55.3528 11.6367 54.8984 11.351 54.4377C10.4115 52.9538 9.52242 51.4268 8.68248 49.8688C8.54179 49.6119 8.4049 49.3543 8.27563 49.0949C6.59078 45.884 5.12118 42.5253 3.88929 39.0298C3.52931 37.9974 3.18755 36.957 2.86698 35.9039C2.61808 35.103 2.38657 34.2902 2.1665 33.4748C1.84816 32.3052 1.55781 31.1173 1.2933 29.9197C0.558709 26.594 0.0523305 23.2696 -0.241501 19.966C-0.396987 18.2121 -0.49192 16.4608 -0.524626 14.7196C-0.708335 5.50631 0.770042 -3.49574 3.68651 -11.9247C4.16234 -13.3186 4.68218 -14.6943 5.2452 -16.0555C8.40385 -23.7501 12.7872 -30.8963 18.2053 -37.1958C21.5081 -41.0335 25.1954 -44.5604 29.2227 -47.7067C29.4406 -47.8791 29.6584 -48.0514 29.8817 -48.217C30.9798 -49.0568 32.1036 -49.8704 33.2502 -50.653L33.2541 -50.6538C38.6725 -54.3449 44.63 -57.3874 51.0308 -59.6361C51.0308 -59.6361 51.0308 -59.6361 51.0346 -59.6369C51.7394 -59.8853 52.443 -60.1215 53.1567 -60.3479L53.1605 -60.3488C55.3868 -61.0589 57.6616 -61.6757 59.9868 -62.1918Z" stroke="#3D3F3F" stroke-miterlimit="10"/>
<path d="M54.6835 -22.831L54.9024 -22.4555C55.4783 -21.4592 56.0856 -20.8099 56.7077 -20.528C57.1212 -20.3398 57.3914 -20.0397 57.5043 -19.6367C57.7944 -18.613 56.9575 -17.223 56.716 -16.8493C58.1629 -14.1902 61.2571 -15.0291 61.3935 -15.0634L62.0217 -15.2429L61.5794 -14.7647C61.5764 -14.76 61.0137 -14.139 61.0946 -13.5009C61.1331 -13.1814 61.3301 -12.9051 61.677 -12.674C61.9961 -12.4608 62.2814 -12.4002 62.553 -12.4925C63.1944 -12.7029 63.534 -13.6824 63.5361 -13.6909L63.6071 -13.8947L63.7984 -13.7891C64.1886 -13.5797 64.7773 -13.6304 65.3396 -13.9273C66.227 -14.4003 66.8088 -15.3336 66.8911 -16.4281C67.0488 -18.5394 68.9035 -19.3952 69.3861 -19.5824C69.7727 -22.8127 72.4417 -23.3852 72.8661 -23.4555C75.4254 -25.5399 77.3451 -24.0178 77.7752 -23.6093C78.9288 -23.9814 80.2997 -23.0976 82.1972 -20.7705C83.5789 -19.077 84.5515 -19.0009 85.3294 -18.9376C85.8455 -18.9002 86.3265 -18.8589 86.7193 -18.3301C86.9712 -17.9859 87.0635 -17.6224 86.9973 -17.2516C86.8835 -16.6263 86.3306 -16.1595 86.0958 -15.9913L86.8304 -12.3379L86.7842 -12.2756C86.7388 -12.2095 85.6361 -10.5925 87.0823 -8.38924C88.5603 -6.13301 87.2036 -4.61562 86.0034 -3.27701C85.8843 -3.14654 85.7659 -3.01225 85.6506 -2.88262C84.4482 -1.49951 85.6038 0.49224 85.6165 0.513426L85.6824 0.630813L85.5925 0.730786C85.573 0.751115 83.4106 3.1475 83.0964 4.74947C83.0018 5.22655 82.782 5.53538 82.4371 5.67597C81.6766 5.98084 80.6087 5.27381 80.5659 5.24329L80.406 5.13478L80.5201 4.98142C80.5231 4.97676 80.8871 4.4879 80.7635 4.09127C80.7053 3.90016 80.5285 3.75139 80.2462 3.65005C79.3514 3.32865 78.3567 4.90968 78.0484 5.5422L77.9911 5.66295L77.859 5.64427C77.8421 5.64003 75.8627 5.38741 75.2151 6.43932C75.0903 6.63505 75.0629 6.83714 75.1224 7.05198C75.3374 7.80837 76.5455 8.44424 76.5587 8.44933L77.3356 8.85291L76.4667 8.79378C76.3854 8.78783 74.457 8.71191 73.5206 11.7162C73.1226 12.9928 73.4863 14.0242 74.4931 14.4727C75.3007 14.8335 76.4476 14.7029 76.9242 13.873C76.9293 13.8598 76.9382 13.8458 76.948 13.8357C77.7721 12.4965 79.8249 12.6649 80.8486 12.8456L79.7005 11.6483L79.6925 11.5941C79.6857 11.5636 79.577 10.8356 80.1693 10.276C80.8532 9.62413 82.1632 9.48931 84.0527 9.87792C84.3956 9.9458 84.7059 9.99291 84.9858 10.0108C85.7066 9.01863 86.4794 8.06294 87.2967 7.14539C87.4009 6.73018 87.5696 6.35269 87.907 6.06974C88.3114 5.72791 88.5224 5.36103 88.5216 4.97714C88.53 4.36319 88.0153 3.89739 88.0098 3.89061L87.8562 3.75668L88.0029 3.6241C88.0089 3.61477 88.714 2.95015 88.6362 2.23533C88.5981 1.86373 88.3449 1.53189 87.8866 1.24958C85.9652 0.0639603 86.7785 -2.04889 86.7895 -2.07134L86.8507 -2.22895L87.0149 -2.1734C87.0573 -2.1628 88.044 -1.87781 89.1987 -3.42236C89.9216 -4.38697 90.8473 -4.43248 91.4469 -4.05353C91.9915 -3.70636 92.3229 -2.94785 91.9065 -2.17128C91.5711 -1.55275 92.0159 -1.02342 92.4835 -0.463148C92.9135 0.0534662 93.363 0.585771 92.9604 1.13522C92.4034 1.89098 91.3821 1.8297 90.8787 1.74144L91.0214 2.33383C91.1015 2.6601 91.2908 2.93811 91.5413 3.13054C93.3963 1.64252 95.415 0.334191 97.5872 -0.76817L97.9686 -0.960859L97.8435 -0.549043C97.5118 0.55676 97.4551 1.44146 97.6749 2.09276C97.8183 2.52499 97.7827 2.92496 97.5692 3.2804C97.02 4.19844 95.4354 4.53827 94.9966 4.6157C94.0523 7.49373 96.7764 9.18124 96.8957 9.25076L97.4547 9.59072L96.8038 9.59521C96.7962 9.5969 96.1148 9.60817 95.6794 9.97288C95.6423 10.1851 95.5298 10.3821 95.3411 10.5601C95.313 10.7223 95.3127 10.9024 95.348 11.0986C95.4077 11.4774 95.5619 11.7232 95.8082 11.8605C95.9986 11.9623 96.2252 11.992 96.4462 11.9789C96.9235 11.6409 97.5571 11.5402 98.0689 11.7387C98.3622 11.8536 98.8509 12.1651 98.9773 12.9732C99.8718 13.2026 100.856 12.9682 101.646 12.3286C103.293 10.999 105.186 11.7668 105.651 11.9915C108.267 10.0545 110.511 11.6127 110.852 11.8729C114.12 12.3115 114.32 14.7555 114.323 15.3508C115.377 15.9371 115.671 17.5439 115.273 20.5208C114.984 22.6892 115.592 23.4504 116.083 24.0615C116.403 24.4624 116.707 24.843 116.586 25.49C116.507 25.9115 116.309 26.2276 115.991 26.4343C115.455 26.7812 114.74 26.6958 114.452 26.6398L112.296 29.679L112.219 29.6921C112.141 29.7014 110.208 30.0026 109.59 32.568C108.958 35.1927 106.921 35.2409 105.127 35.2832C104.948 35.287 104.772 35.2899 104.598 35.2967C102.769 35.3665 102.105 37.5743 102.098 37.5959L102.063 37.7277L101.927 37.7298C101.895 37.7289 98.6739 37.7921 97.2905 38.6633C96.879 38.9187 96.5025 38.9703 96.1639 38.8134C95.4203 38.4704 95.2098 37.209 95.198 37.1556L95.1673 36.9624L95.3584 36.94C95.3668 36.9421 95.9704 36.8681 96.1754 36.5105C96.273 36.3368 96.2623 36.1072 96.1449 35.8292C95.7683 34.9567 93.9359 35.3155 93.2623 35.5251L93.1382 35.5606L93.0587 35.4543C93.0469 35.4369 91.8781 33.8201 90.673 34.0677C90.4434 34.1147 90.2764 34.2277 90.1631 34.4209C89.757 35.0992 90.1232 36.4141 90.1258 36.4255L90.3639 37.2687L89.8113 36.5953C89.7572 36.5313 88.495 35.0713 85.6674 36.4472C84.4644 37.0304 83.963 38.0018 84.3216 39.0464C84.6148 39.8854 85.4913 40.6309 86.422 40.4083L86.4677 40.3981C88.0062 40.0846 89.2859 41.6967 89.8539 42.5667L89.9404 40.9113L89.9747 40.8677C89.9925 40.8397 90.4489 40.2623 91.2594 40.3104C92.2071 40.364 93.1977 41.2282 94.2085 42.8721C94.8267 43.879 95.399 44.424 95.9527 44.5411C96.5556 44.6633 97.1007 44.2702 97.6805 43.8534C98.2748 43.4295 98.8856 42.9898 99.6164 43.0756C100.142 43.1388 100.552 43.0398 100.834 42.7772C101.286 42.3608 101.272 41.6638 101.275 41.6591L101.267 41.457L101.465 41.4689C101.478 41.4702 102.442 41.5281 102.909 40.9803C103.155 40.6978 103.224 40.2864 103.115 39.7584C102.667 37.5457 104.762 36.6924 104.784 36.6835L104.946 36.6196L105.016 36.7759C105.033 36.8162 105.503 37.732 107.419 37.5147C108.613 37.3815 109.283 38.0249 109.414 38.724C109.533 39.3575 109.21 40.1214 108.356 40.347C107.676 40.5261 107.595 41.212 107.504 41.9404C107.424 42.6102 107.34 43.2971 106.671 43.3816C105.735 43.4932 105.086 42.7054 104.803 42.2761L104.468 42.7866C104.073 43.3903 104.187 44.1971 104.734 44.6637L107.731 47.2229L106.973 47.035C106.956 47.0307 105.173 46.5985 103.731 47.6909C103.114 48.1598 102.963 48.9775 102.813 49.7668C102.682 50.4562 102.561 51.107 102.109 51.4115C101.851 51.5847 101.524 51.6253 101.104 51.5345C99.0851 51.1027 97.4907 51.7607 96.9437 53.2503C96.6662 54.0041 97.1078 54.6821 97.6606 54.9394C98.1731 55.1777 98.888 55.119 99.3537 54.2395C99.6806 53.6188 100.251 53.2842 100.907 53.3225C101.572 53.363 102.199 53.7958 102.43 54.3725C102.557 54.6924 102.671 55.3352 102.014 56.0532C101.323 56.8026 101.566 57.6488 101.803 58.4683C101.976 59.0701 102.137 59.6383 101.884 60.1026C101.721 60.3988 101.405 60.6131 100.919 60.749C99.0036 61.2942 97.9302 59.5482 97.5168 58.6719C97.0726 60.2467 97.1996 61.9268 97.8901 63.6777L98.0708 64.1337L97.6412 63.909C92.8046 61.4023 88.6131 57.8323 85.3648 53.5168C85.3296 54.1727 85.2716 54.8337 85.1937 55.4951L85.1431 55.9184L84.8662 55.5878C84.1309 54.7029 83.4249 54.1676 82.7619 53.9907C82.3208 53.8766 82.0057 53.6265 81.8266 53.2502C81.3663 52.2883 81.9603 50.7762 82.1344 50.3695C80.262 47.9928 77.348 49.3399 77.2243 49.3954L76.6348 49.6783L76.9862 49.1322C76.993 49.1267 77.4445 48.4184 77.2568 47.8039C77.1611 47.4971 76.9205 47.2585 76.5425 47.0864C76.1925 46.9321 75.8982 46.9214 75.6473 47.0531C75.0494 47.3699 74.8799 48.3957 74.8778 48.4041L74.8454 48.6194L74.6371 48.5456C74.2176 48.4027 73.647 48.5534 73.1409 48.9418C72.3444 49.5547 71.9297 50.5749 72.0342 51.6639C72.2317 53.7723 70.5469 54.9265 70.1019 55.1933C70.2679 58.4449 67.7325 59.4599 67.3233 59.5988C65.1527 62.085 63.0047 60.9057 62.5088 60.5797C61.4363 61.1379 59.9346 60.4951 57.6721 58.5251C56.0266 57.0862 55.0542 57.1741 54.2745 57.2472C53.7608 57.2932 53.2784 57.3363 52.806 56.8811C52.4968 56.5857 52.3452 56.2433 52.3491 55.8624C52.3563 55.2247 52.8232 54.677 53.0251 54.4682L51.686 50.9929L51.7182 50.9218C51.7454 50.8637 52.2584 49.7457 51.5899 48.3299C51.4238 48.4108 51.2607 48.487 51.0937 48.5641L50.7043 48.7385L50.8463 48.331C50.947 48.0446 51.0266 47.7709 51.082 47.5145C50.9945 47.3899 50.8879 47.2696 50.772 47.1433C48.9367 45.1704 50.0197 43.4458 50.9787 41.9207C51.0738 41.7715 51.165 41.6233 51.2563 41.475C52.2107 39.9109 50.7393 38.1373 50.7237 38.1207L50.6374 38.0199L50.7079 37.9042C50.7168 37.8902 51.2247 37.0934 51.6944 36.105L51.6177 36.138L51.5743 35.9236C51.4784 35.4888 51.055 35.0748 50.4607 34.8466C49.5948 34.5108 48.6024 34.6352 47.7653 35.173C47.7848 35.1887 47.7941 35.1947 47.7941 35.1947L47.9655 35.3006L47.8446 35.4595C47.8386 35.4688 47.2575 36.2419 47.4535 36.9305C47.5572 37.2916 47.86 37.5764 48.3603 37.7773C50.4512 38.6253 50.0053 40.8446 50.0019 40.8654L49.967 41.0331L49.7934 41.0077C49.7519 41.0009 48.731 40.8875 47.8501 42.6033C47.3033 43.6768 46.3959 43.8783 45.7433 43.6031C45.144 43.3521 44.6922 42.6643 44.9719 41.8301C45.1959 41.1603 44.6693 40.7131 44.1169 40.2397C43.6004 39.8023 43.0737 39.3551 43.3756 38.748C43.7977 37.9062 44.8133 37.7968 45.3295 37.7982L45.0893 37.2354C44.8034 36.5748 44.0705 36.2254 43.3753 36.4278L39.5884 37.5166L40.1638 36.9888C40.1697 36.9795 40.4254 36.7427 40.7058 36.3284C39.4359 36.2463 38.5425 35.5685 38.3415 35.4011C35.0959 34.8295 34.9911 32.3804 35.0122 31.7877C33.9912 31.1662 33.7579 29.5658 34.2618 26.6495C34.0129 26.5368 33.7509 26.4549 33.4889 26.3731C32.8954 26.1848 32.3329 26.0097 32.0862 25.5444C31.9277 25.2435 31.9232 24.8604 32.0775 24.3821C32.342 23.5513 32.8859 23.0985 33.493 22.8597C33.2377 22.5003 33.0311 22.1261 33.1555 21.5664C33.2105 21.3262 33.3052 21.1211 33.4375 20.9597C32.7955 20.6422 32.0831 20.4043 31.3109 20.2397L30.8287 20.1387L31.2567 19.9037C33.8524 18.4553 36.6064 17.3437 39.4493 16.5805C39.8356 16.1747 40.1955 15.5947 40.4295 14.7707C41.1642 12.1752 43.2028 12.2067 44.997 12.2364C45.174 12.2411 45.3502 12.242 45.5263 12.2428C47.3553 12.2488 48.1098 10.069 48.117 10.0474L48.1566 9.91862L48.2891 9.92119C48.3213 9.92205 51.5468 9.98602 52.9635 9.1754C53.3822 8.93441 53.7621 8.89807 54.091 9.0651C54.8222 9.44282 54.9823 10.7115 54.9903 10.7657L55.0125 10.9568L54.8236 10.9707C54.8152 10.9686 54.2104 11.0189 53.9922 11.3713C53.8853 11.5391 53.8846 11.7713 53.9943 12.051C54.3345 12.9396 56.1791 12.6541 56.8624 12.4703L56.9873 12.4386L57.06 12.5505C57.071 12.564 58.1741 14.2274 59.3902 14.0294C59.6223 13.9939 59.7939 13.8838 59.9165 13.6965C60.3468 13.0369 60.0331 11.7064 60.0305 11.6949L59.8267 10.8441L60.3522 11.5395C60.3953 11.5899 61.2028 12.6028 63.0584 12.2948C61.7213 10.8755 60.51 9.35616 59.4297 7.75976C59.3128 7.77371 59.1857 7.77792 59.0515 7.76771C58.1115 7.67637 57.1523 6.77319 56.2088 5.09038C55.6292 4.05891 55.0841 3.49185 54.5337 3.35399C53.9373 3.20639 53.3757 3.57912 52.7785 3.97174C52.1707 4.37072 51.5388 4.78707 50.8135 4.67205C50.2911 4.58802 49.8776 4.67181 49.5847 4.92087C49.1171 5.32074 49.1026 6.01605 49.1035 6.01986L49.1007 6.22451L48.8995 6.20115C48.8919 6.20285 47.9303 6.1043 47.4393 6.63339C47.1836 6.90619 47.0975 7.31336 47.187 7.84556C47.544 10.0786 45.418 10.8467 45.3952 10.8518L45.2316 10.9081L45.1687 10.75C45.1519 10.7098 44.7182 9.7779 42.7971 9.91638C41.5965 10.0029 40.9566 9.33287 40.8529 8.62779C40.7598 7.98839 41.1109 7.24232 41.9717 7.04721C42.6579 6.89485 42.7676 6.2144 42.8842 5.49242C42.9935 4.82808 43.1053 4.13914 43.7813 4.08508C44.7164 4.00948 45.3361 4.82402 45.6006 5.26135L45.9553 4.76655C46.374 4.18151 46.2904 3.36796 45.763 2.88098L42.872 0.202365L43.6247 0.423314C43.6416 0.427556 45.4001 0.929263 46.8874 -0.10505C47.5211 -0.54979 47.7063 -1.35902 47.889 -2.14369C48.0424 -2.82583 48.1918 -3.47111 48.6563 -3.75827C48.9204 -3.92091 49.2507 -3.94624 49.6656 -3.84232C51.6624 -3.32954 53.2758 -3.91978 53.8862 -5.37549C53.7886 -5.85389 53.6986 -6.33398 53.6239 -6.81745C53.5097 -6.93612 53.3798 -7.03531 53.2406 -7.10441C52.7361 -7.36046 52.0221 -7.33395 51.5238 -6.47522C51.1707 -5.86474 50.5872 -5.55516 49.9334 -5.61804C49.2704 -5.68685 48.6616 -6.14377 48.4523 -6.72939C48.3401 -7.05652 48.2499 -7.70059 48.9368 -8.39319C49.6538 -9.11246 49.4445 -9.97011 49.2419 -10.7972C49.0957 -11.4049 48.9572 -11.9782 49.2254 -12.4298C49.4002 -12.7247 49.724 -12.9246 50.2179 -13.0423C51.7065 -13.4007 52.6449 -12.4289 53.1663 -11.5526C53.1263 -13.0199 53.1736 -14.4906 53.3165 -15.9625L53.1954 -16.3117L53.3418 -16.2282C53.563 -18.3056 53.9659 -20.3753 54.5661 -22.4208L54.6835 -22.831Z" fill="#EBEBEB"/>
<path d="M40.3713 65.937C41.0941 64.9724 42.0199 64.9269 42.6194 65.3058C43.164 65.653 43.4954 66.4115 43.079 67.188C42.7436 67.8066 43.1884 68.3359 43.656 68.8961C44.086 69.4127 44.5355 69.945 44.1329 70.4945C43.5759 71.2502 42.5546 71.1889 42.0512 71.1007L42.194 71.693C42.274 72.0193 42.4634 72.2973 42.7138 72.4897C44.5688 71.0017 46.5875 69.6935 48.7596 68.5911L49.1409 68.3984L49.0159 68.8102C48.6842 69.916 48.6275 70.8007 48.8473 71.452C48.9907 71.8842 48.955 72.2842 48.7416 72.6396C48.1924 73.5576 46.6078 73.8974 46.169 73.9749C45.2247 76.8528 47.9488 78.5403 48.0681 78.6098L48.627 78.9497L47.9762 78.9542C47.9686 78.9559 47.2872 78.9672 46.8518 79.3319C46.8147 79.5442 46.7022 79.7412 46.5136 79.9191C46.4854 80.0813 46.4852 80.2614 46.5205 80.4576C46.5801 80.8364 46.7344 81.0822 46.9806 81.2195C47.171 81.3213 47.3976 81.351 47.6186 81.3379C48.0959 80.9999 48.7295 80.8992 49.2412 81.0977C49.5345 81.2126 50.0232 81.5241 50.1496 82.3321C51.0441 82.5616 52.0281 82.3271 52.8187 81.6875C54.4647 80.3579 56.3579 81.1258 56.8234 81.3504C59.4391 79.4135 61.6827 80.9716 62.0241 81.2319C65.2922 81.6704 65.4918 84.1144 65.4953 84.7097C66.5345 85.287 66.834 86.8607 66.4601 89.7681C55.6908 88.3387 45.4538 84.6469 36.3681 79.0873C37.0273 78.1968 37.7284 77.3331 38.4693 76.5045C38.5736 76.0893 38.7422 75.7118 39.0796 75.4289C39.4841 75.087 39.695 74.7202 39.6942 74.3363C39.7027 73.7224 39.1879 73.2566 39.1824 73.2498L39.0289 73.1159L39.1756 72.9833C39.1815 72.974 39.8866 72.3094 39.8088 71.5945C39.7707 71.223 39.5175 70.8911 39.0593 70.6088C37.1379 69.4232 37.9511 67.3104 37.9622 67.288L38.0234 67.1304L38.1876 67.1859C38.2299 67.1965 39.2166 67.4815 40.3713 65.937Z" fill="#EBEBEB"/>
<path d="M28.9453 45.7318C30.0989 45.3597 31.4698 46.2435 33.3674 48.5706C34.7491 50.2642 35.7217 50.3403 36.4996 50.4036C37.0158 50.441 37.4968 50.4822 37.8895 51.0111C38.1415 51.3553 38.2337 51.7188 38.1676 52.0896C38.0537 52.715 37.5009 53.1818 37.2661 53.3499L38.0007 57.0034L37.9545 57.0657C37.9091 57.1318 36.8063 58.7489 38.2526 60.9522C39.7306 63.2084 38.3739 64.7259 37.1737 66.0645C37.0545 66.195 36.9362 66.3293 36.8208 66.4589C35.6184 67.842 36.7741 69.8338 36.7867 69.855L36.8526 69.9724L36.7627 70.0724C36.7432 70.0927 34.5808 72.4891 34.2666 74.0911C34.1719 74.5682 33.9522 74.8771 33.6073 75.0176C32.8467 75.3225 31.7788 74.6155 31.736 74.585L31.5761 74.4765L31.6902 74.3231C31.6932 74.3184 32.0572 73.8296 31.9336 73.4329C31.8754 73.2418 31.6986 73.093 31.4163 72.9917C30.7212 72.7419 29.9612 73.6468 29.5173 74.3535C24.0624 70.1517 19.1564 65.212 14.967 59.6411C14.2369 58.671 13.5263 57.6805 12.8467 56.6673C13.1657 56.8805 13.4511 56.9411 13.7226 56.8488C14.3641 56.6384 14.7037 55.6589 14.7058 55.6504L14.7768 55.4466L14.9681 55.5521C15.3583 55.7616 15.947 55.7109 16.5093 55.414C17.3967 54.9409 17.9785 54.0076 18.0609 52.9132C18.2186 50.8018 20.0733 49.9459 20.5559 49.7588C20.9425 46.5284 23.6116 45.9558 24.036 45.8856C26.5953 43.8011 28.5151 45.3232 28.9453 45.7318Z" fill="#EBEBEB"/>
<path d="M16.614 24.0808C17.7615 24.4421 18.1148 25.2997 17.9517 25.992C17.8027 26.6211 17.2007 27.1908 16.3303 27.052C15.6335 26.9387 15.2855 27.536 14.9044 28.1646C14.5607 28.745 14.208 29.3393 13.5617 29.1468C12.661 28.8707 12.3879 27.8873 12.2996 27.3789L11.7894 27.7121C11.1838 28.1026 10.9613 28.8881 11.2721 29.5351L12.9803 33.0882L12.3636 32.6131C12.3488 32.6003 10.8944 31.4831 9.13538 31.9017C8.37932 32.0815 7.91054 32.7656 7.45746 33.4303C7.05699 34.0072 6.68577 34.5537 6.14704 34.6493C5.84252 34.7009 5.52592 34.6072 5.1786 34.3562C4.14893 33.6048 3.09836 33.302 2.18778 33.4521C1.86959 32.2827 1.57939 31.095 1.31502 29.8976C0.580838 26.5723 0.0748825 23.2484 -0.218518 19.9453C0.0334702 19.9093 0.368384 19.923 0.715801 20.1019C1.55915 20.5347 2.11441 21.7275 2.37617 23.6376C2.53514 24.8104 2.83611 25.5396 3.29765 25.8732C3.79557 26.2266 4.45292 26.0887 5.15221 25.9415C5.86758 25.7946 6.60497 25.6389 7.23583 26.0149C7.69153 26.2858 8.10725 26.3575 8.47155 26.2326C9.05191 26.0357 9.32162 25.3918 9.3246 25.3871L9.39895 25.1986L9.57539 25.2915C9.58471 25.2974 10.4458 25.7383 11.0928 25.4266C11.4297 25.2678 11.6609 24.9205 11.7767 24.3947C12.261 22.187 14.5191 22.2537 14.5437 22.2563L14.7168 22.2618L14.7187 22.4334C14.7166 22.4779 14.7754 23.5049 16.614 24.0808Z" fill="#EBEBEB"/>
<path d="M13.7338 -20.4913L13.8547 -20.6141L13.9811 -20.4942C14.0146 -20.4696 14.8005 -19.8079 16.4834 -20.7536C17.5323 -21.3466 18.3983 -21.0107 18.7922 -20.4221C19.1507 -19.8855 19.1458 -19.0563 18.4535 -18.5145C17.8969 -18.0829 18.0871 -17.421 18.2903 -16.718C18.4732 -16.0705 18.6689 -15.4018 18.0798 -15.0629C17.2665 -14.5983 16.3558 -15.0643 15.9327 -15.3504L15.8214 -14.7496C15.7621 -14.4204 15.8239 -14.086 15.9764 -13.8118C18.2734 -14.4218 20.6492 -14.8012 23.0797 -14.9328L23.5066 -14.9555L23.2229 -14.6285C22.473 -13.7499 22.0667 -12.9635 22.0015 -12.2809C21.9577 -11.8271 21.7641 -11.4721 21.428 -11.2374C20.5527 -10.619 18.9685 -10.9474 18.5367 -11.0556C16.5108 -8.8015 18.319 -6.15439 18.3993 -6.0442L18.7738 -5.50723L18.1766 -5.76672C18.1682 -5.76884 17.5418 -6.03384 16.9965 -5.87679C16.876 -5.69801 16.6942 -5.56162 16.4493 -5.47524C16.3555 -5.33841 16.2838 -5.17444 16.2386 -4.98039C16.1403 -4.61049 16.1806 -4.31938 16.3497 -4.09688C16.4833 -3.9265 16.678 -3.80569 16.8871 -3.72809C17.4568 -3.84657 18.0774 -3.6803 18.4665 -3.2946C18.6885 -3.06785 19.0106 -2.58725 18.7974 -1.79578C19.5234 -1.22482 20.5158 -1.04107 21.4969 -1.3069C23.5393 -1.85634 24.9632 -0.388153 25.2981 0.00558101C28.4714 -0.710918 29.8913 1.62634 30.0979 2.00055C32.9101 3.72463 32.1055 6.03966 31.8668 6.58875C32.5952 7.55124 32.2141 9.14012 30.6486 11.7041C29.5087 13.5695 29.7565 14.5106 29.9562 15.2704C30.0894 15.765 30.2137 16.2375 29.8416 16.7801C29.596 17.1347 29.29 17.3427 28.916 17.4057C28.2861 17.5056 27.6653 17.1393 27.4237 16.9689L24.2261 18.879L24.1499 18.8599C24.0728 18.837 22.1856 18.3319 20.5847 20.4276C18.9473 22.5755 17.0629 21.7936 15.408 21.1088C15.2404 21.038 15.0812 20.9693 14.9191 20.9053C13.2184 20.2307 11.7179 21.9841 11.7052 21.9989L11.617 22.1065L11.4934 22.0539C11.4663 22.0399 8.49503 20.7912 6.87617 21.0306C6.39881 21.0966 6.03222 20.9939 5.7861 20.7125C5.24612 20.0963 5.56067 18.8582 5.5726 18.8036L5.62322 18.6163L5.80738 18.6714C5.81287 18.6782 6.39536 18.8529 6.72598 18.6115C6.88749 18.4916 6.96823 18.2777 6.97285 17.9726C6.98297 17.0222 5.16422 16.6098 4.46261 16.5295L4.33516 16.5138L4.30653 16.3841C4.30148 16.3613 3.88644 14.409 2.68494 14.1477C2.4542 14.0989 2.25809 14.1344 2.07538 14.267C1.42814 14.7228 1.23457 16.074 1.22946 16.0871L1.10892 16.954L0.875396 16.1137C0.858949 16.0573 0.600026 15.2107 -0.517721 14.6947C-0.700229 5.48149 0.779602 -3.52065 3.69769 -11.9499C4.4488 -11.8446 5.35577 -11.4139 6.40463 -10.6666C6.68894 -10.4656 6.95425 -10.2965 7.20268 -10.1676C8.2626 -10.783 9.35422 -11.3454 10.4737 -11.854C10.735 -12.1921 11.042 -12.4683 11.4669 -12.5906C11.974 -12.7392 12.3144 -12.9908 12.469 -13.3412C12.725 -13.9021 12.4413 -14.5352 12.4396 -14.5429L12.3547 -14.7281L12.5411 -14.7895C12.5517 -14.7958 13.4643 -15.1184 13.6803 -15.8065C13.7981 -16.1607 13.7004 -16.5671 13.3944 -17.0113C12.1157 -18.8718 13.7126 -20.4786 13.7338 -20.4913Z" fill="#EBEBEB"/>
<path d="M92.9026 75.6691C92.3729 76.0586 92.3321 76.5435 92.2971 77.0552C92.2339 77.837 92.1561 78.8061 90.4635 80.1935C89.6816 80.8349 89.0585 81.4171 88.593 81.9523C88.5519 82.0015 88.5099 82.0468 88.4726 82.095C88.4307 82.1403 88.3904 82.1933 88.3569 82.2407C88.0028 82.6832 87.7729 83.0902 87.6496 83.4734C87.6271 83.5344 87.6122 83.5937 87.5973 83.653C87.5824 83.7123 87.5675 83.7716 87.5649 83.8321C87.5214 84.1057 87.5397 84.3696 87.6219 84.6153C87.2188 85.0527 85.6961 86.9743 87.7753 89.5281C87.7766 89.5518 87.7842 89.5861 87.7926 89.6242C89.6286 89.3567 91.4684 89.0163 93.3092 88.6077C101.682 86.7492 109.434 83.597 116.399 79.3997C116.272 79.3319 116.13 79.2836 115.967 79.2518C114.363 78.9438 111.971 76.7834 111.946 76.7609L111.847 76.6711L111.734 76.7401C111.709 76.7536 109.718 77.9114 108.341 76.7094C108.208 76.595 108.077 76.476 107.947 76.3569C106.608 75.1625 105.092 73.8033 102.837 75.2876C100.635 76.7363 99.02 75.635 98.9578 75.5888L98.8918 75.5434L95.2417 76.2856C95.0701 76.0518 94.608 75.4985 93.9833 75.3852C93.613 75.3195 93.2496 75.4121 92.9026 75.6691Z" fill="#EBEBEB"/>
</g>
<g opacity="0.189737">
<path d="M65.1876 10.7621L65.01 11.0821C64.9386 11.0438 57.8052 7.27692 47.9734 8.08891C45.5498 8.28897 43.1469 8.71451 40.8306 9.35339L40.7307 9.00289C43.0692 8.35736 45.4955 7.92753 47.9426 7.7259C57.8902 6.90374 65.1158 10.7234 65.1876 10.7621Z" fill="#3D3F3F"/>
</g>
<g opacity="0.460095">
<path d="M38.2312 10.1732C34.2633 11.5877 31.988 13.182 31.9654 13.198L31.7492 12.9022C31.7722 12.8858 34.0854 11.2634 38.1056 9.83051L38.2312 10.1732Z" fill="#3D3F3F"/>
</g>
<g opacity="0.313169">
<path d="M69.851 77.9596C68.8414 78.5544 67.781 79.1088 66.7003 79.6082L66.543 79.2776C67.6128 78.7837 68.6618 78.2347 69.6605 77.6462L69.851 77.9596Z" fill="#3D3F3F"/>
</g>
<g opacity="0.141627">
<path d="M65.1948 80.2601C57.8827 83.2451 51.5825 83.0438 51.5197 83.0415L51.5341 82.6769C51.5962 82.6793 57.8202 82.8762 65.0536 79.9236L65.1948 80.2601Z" fill="#3D3F3F"/>
</g>
<path d="M25.8279 19.6398C25.0708 11.9887 25.8521 5.79408 28.4318 2.87904C30.7852 0.221891 34.2859 0.468069 38.3487 3.07832C38.3994 3.10958 38.454 3.14084 38.5048 3.17601C38.5555 3.21118 38.6062 3.24244 38.657 3.27761C38.7819 3.35967 38.9107 3.44563 39.0355 3.5316C39.0863 3.57068 39.137 3.60584 39.1878 3.64101C39.2346 3.67618 39.2814 3.70744 39.3322 3.74652C39.6327 3.96143 39.941 4.19198 40.2493 4.43425C40.2961 4.46941 40.3469 4.50849 40.3937 4.54757C40.4405 4.58664 40.4913 4.62572 40.542 4.6687C40.9284 4.9774 41.3186 5.30954 41.7167 5.66122C41.7636 5.7003 41.8104 5.74328 41.8572 5.78626C41.9002 5.82534 41.947 5.86832 41.9938 5.91131C42.7627 6.60295 43.5432 7.36492 44.3277 8.19333C44.433 8.29883 44.5306 8.40434 44.6282 8.51375C45.0848 8.99438 45.5375 9.49845 45.9902 10.0221C46.041 10.0768 46.0878 10.1315 46.1346 10.1862C46.1854 10.2409 46.2322 10.2995 46.2829 10.3581C48.5426 12.9879 50.853 16.1218 53.14 19.6933C54.5879 21.948 56.0241 24.3746 57.433 26.9575C57.4643 27.0122 57.4955 27.0669 57.5228 27.1216C57.554 27.1763 57.5852 27.2349 57.6126 27.2896C57.9443 27.8953 58.2721 28.5127 58.6 29.1379C58.6273 29.1926 58.6546 29.2473 58.6858 29.302C58.7131 29.3567 58.7405 29.4114 58.7717 29.4661C59.1893 30.2711 59.603 31.0878 60.0127 31.9201C60.0401 31.9709 60.0674 32.0256 60.0908 32.0803C60.1025 32.0998 60.1142 32.1194 60.122 32.1389C60.1376 32.1741 60.1571 32.2092 60.1728 32.2444C60.3055 32.5101 60.4381 32.7797 60.5669 33.0494C60.6684 33.2643 60.7738 33.4753 60.8713 33.6902C60.9026 33.7449 60.926 33.7996 60.9533 33.8543C60.9806 33.909 61.004 33.9637 61.0314 34.0184C63.334 38.8599 65.3322 43.7405 66.9986 48.5038C68.8056 53.6696 70.2262 58.6947 71.2253 63.3682C71.9668 66.8537 72.4742 70.1439 72.7318 73.1566C72.7396 73.2348 72.7435 73.3129 72.7513 73.395C72.7552 73.4614 72.763 73.5278 72.7669 73.5943C72.8176 74.2273 72.8527 74.8486 72.8801 75.4582C72.884 75.5207 72.8879 75.5832 72.8879 75.6418C72.8918 75.7044 72.8918 75.763 72.8957 75.8216C72.9152 76.3686 72.9269 76.904 72.9269 77.4276V77.6152C72.9269 77.6777 72.9269 77.7363 72.923 77.7949C72.8918 82.7927 71.959 86.6534 70.035 88.826C66.7762 92.5069 61.3085 90.6078 55.1968 84.5902C55.1499 84.5433 55.107 84.5003 55.0602 84.4534L54.9197 84.3127C54.8299 84.2228 54.7402 84.133 54.6465 84.0392C54.5997 83.9884 54.5528 83.9415 54.506 83.8907C54.4592 83.8477 54.4162 83.8047 54.3772 83.7578C54.1274 83.5039 53.8815 83.2421 53.6318 82.9724C53.5264 82.8591 53.421 82.7458 53.3196 82.6286C52.8668 82.1323 52.4102 81.6165 51.9536 81.0773C51.9029 81.0186 51.8521 80.9561 51.8014 80.8975" stroke="black" stroke-miterlimit="10"/>
<path d="M18.457 28.9267C7.01813 30.3647 0.363971 34.3113 1.90945 39.9148C2.97099 43.7676 7.73623 47.7807 14.8548 51.3796V51.3835C24.5765 56.3031 38.6966 60.449 53.7846 62.3403C64.9932 63.747 74.914 63.6845 82.3955 62.4302C92.3631 60.7655 97.9948 56.9908 96.5586 51.7899C95.6531 48.5114 92.0587 45.1079 86.6105 41.9428" stroke="black" stroke-miterlimit="10"/>
<path d="M19.5888 63.1769C19.5576 63.255 19.5225 63.3293 19.4912 63.4035C19.4639 63.47 19.4366 63.5325 19.4093 63.595C18.2619 66.2639 17.3955 68.753 16.8296 71.0155C16.8101 71.0741 16.7984 71.1366 16.7828 71.1952C16.7671 71.2538 16.7554 71.3124 16.7398 71.3711C16.5642 72.1057 16.4159 72.8208 16.3027 73.5046C16.2949 73.5671 16.2832 73.6257 16.2754 73.6882C16.2676 73.7469 16.2559 73.8094 16.2481 73.868C16.1505 74.5323 16.0803 75.1731 16.0451 75.7827C16.0412 75.8452 16.0412 75.9038 16.0334 75.9664C16.0334 76.0289 16.0295 76.0875 16.0295 76.1461C16.01 76.7205 16.0178 77.2637 16.0568 77.7795C16.0607 77.842 16.0646 77.9045 16.0725 77.9631C16.0764 78.0217 16.0803 78.0803 16.0881 78.139C16.4042 81.1986 17.8209 83.2383 20.4357 83.9183C24.2955 84.9225 30.1457 82.8046 36.8155 78.4359C36.874 78.3969 36.9326 78.3578 36.9911 78.3187C37.0575 78.2796 37.1199 78.2367 37.1862 78.1898C39.8011 76.4548 42.5369 74.3799 45.3273 72.0119C48.6173 69.2219 51.9815 66.0294 55.2988 62.5204C58.8893 58.7301 62.4291 54.5685 65.7738 50.1491C66.1914 49.5981 66.5972 49.051 66.9992 48.504C68.4081 46.5854 69.7311 44.6863 70.9566 42.8224C70.9917 42.7716 71.0268 42.7169 71.0581 42.6661C71.0932 42.6153 71.1244 42.5684 71.1556 42.5176C71.3859 42.1698 71.6084 41.8259 71.8269 41.4821C71.8581 41.4313 71.8893 41.3844 71.9206 41.3336V41.3297C71.9557 41.2789 71.9869 41.232 72.022 41.1773C73.025 39.6025 73.9578 38.0512 74.8242 36.5312C77.0761 32.5806 78.8557 28.8528 80.1241 25.465C80.1553 25.3907 80.1827 25.3126 80.21 25.2383C80.2334 25.1719 80.2607 25.1094 80.2841 25.0429C80.4363 24.6287 80.5807 24.2184 80.7173 23.8121C80.7369 23.7534 80.7564 23.6909 80.7759 23.6284C80.8032 23.5542 80.8266 23.4799 80.85 23.4057C80.8812 23.3158 80.9086 23.2259 80.9359 23.1361C80.9632 23.0618 80.9866 22.9876 81.01 22.9133C81.0296 22.8508 81.0491 22.7883 81.0647 22.7258C81.2052 22.2803 81.334 21.8426 81.4471 21.4167C81.4667 21.3581 81.4823 21.2995 81.494 21.2409C81.5135 21.1823 81.5291 21.1237 81.5408 21.065C81.6852 20.5297 81.8101 20.0061 81.9194 19.4942C81.9311 19.4356 81.9428 19.377 81.9545 19.3145C81.9701 19.2558 81.9818 19.1972 81.9935 19.1347C82.6687 15.7351 82.6024 12.9373 81.7281 10.9405C81.7086 10.8858 81.6813 10.8311 81.654 10.7764C81.6306 10.7217 81.6033 10.667 81.5759 10.6123C81.2364 9.9402 80.7993 9.3736 80.2568 8.91251C80.21 8.87343 80.1631 8.83436 80.1124 8.79528C80.0656 8.7562 80.0187 8.72104 79.968 8.68587C79.4177 8.27948 78.7738 7.9786 78.0323 7.78713C74.5393 6.87667 69.4111 8.52957 63.518 12.0972C63.4555 12.1323 63.3931 12.1675 63.3307 12.2105C63.2604 12.2496 63.1902 12.2926 63.1199 12.3394" stroke="black" stroke-miterlimit="10"/>
</svg>
