<svg width="33" height="32" viewBox="0 0 33 32" fill="none" xmlns="http://www.w3.org/2000/svg">
<path d="M27.4667 9.33334H6.13333C4.66057 9.33334 3.46666 10.5273 3.46666 12V25.3333C3.46666 26.8061 4.66057 28 6.13333 28H27.4667C28.9394 28 30.1333 26.8061 30.1333 25.3333V12C30.1333 10.5273 28.9394 9.33334 27.4667 9.33334Z" stroke="#4A5568" stroke-width="2" stroke-linecap="round" stroke-linejoin="round"/>
<path d="M22.1333 28V6.66667C22.1333 5.95942 21.8524 5.28115 21.3523 4.78105C20.8522 4.28095 20.1739 4 19.4667 4H14.1333C13.4261 4 12.7478 4.28095 12.2477 4.78105C11.7476 5.28115 11.4667 5.95942 11.4667 6.66667V28" stroke="#4A5568" stroke-width="2" stroke-linecap="round" stroke-linejoin="round"/>
</svg>
