<svg width="33" height="32" viewBox="0 0 33 32" fill="none" xmlns="http://www.w3.org/2000/svg">
<path d="M12.4 28H20.4" stroke="#4A5568" stroke-width="2" stroke-linecap="round" stroke-linejoin="round"/>
<path d="M7.42499 13C7.42332 11.8145 7.65622 10.6403 8.11027 9.54522C8.56432 8.45009 9.23055 7.45561 10.0706 6.61906C10.9106 5.78251 11.9079 5.12042 13.0049 4.67093C14.1019 4.22144 15.277 3.99342 16.4625 4.00002C21.4125 4.03752 25.375 8.15002 25.375 13.1125V14C25.375 18.475 26.3125 21.075 27.1375 22.5C27.2251 22.6518 27.2713 22.8239 27.2715 22.9991C27.2716 23.1744 27.2257 23.3466 27.1384 23.4985C27.051 23.6504 26.9253 23.7767 26.7738 23.8647C26.6222 23.9527 26.4502 23.9994 26.275 24H6.52499C6.34975 23.9994 6.17775 23.9527 6.02622 23.8647C5.87469 23.7767 5.74896 23.6504 5.6616 23.4985C5.57425 23.3466 5.52836 23.1744 5.52851 22.9991C5.52867 22.8239 5.57487 22.6518 5.66249 22.5C6.48749 21.075 7.42499 18.475 7.42499 14V13Z" stroke="#4A5568" stroke-width="2" stroke-linecap="round" stroke-linejoin="round"/>
</svg>
