<svg width="12" height="12" viewBox="0 0 12 12" fill="none" xmlns="http://www.w3.org/2000/svg">
<path d="M5.75 0.3125C4.62512 0.3125 3.5255 0.646066 2.5902 1.27102C1.65489 1.89597 0.925911 2.78423 0.495438 3.82349C0.0649643 4.86274 -0.0476672 6.00631 0.171786 7.10958C0.39124 8.21284 0.932922 9.22626 1.72833 10.0217C2.52374 10.8171 3.53716 11.3588 4.64043 11.5782C5.74369 11.7977 6.88726 11.685 7.92651 11.2546C8.96577 10.8241 9.85404 10.0951 10.479 9.15981C11.1039 8.2245 11.4375 7.12488 11.4375 6C11.4346 4.49247 10.8345 3.04751 9.76848 1.98152C8.70249 0.915536 7.25753 0.315391 5.75 0.3125V0.3125ZM5.64063 2.9375C5.77042 2.9375 5.8973 2.97599 6.00522 3.0481C6.11314 3.12021 6.19725 3.2227 6.24692 3.34261C6.29659 3.46253 6.30959 3.59448 6.28427 3.72178C6.25895 3.84908 6.19644 3.96601 6.10467 4.05779C6.01289 4.14957 5.89596 4.21207 5.76866 4.23739C5.64136 4.26271 5.50941 4.24972 5.38949 4.20005C5.26958 4.15038 5.16709 4.06626 5.09498 3.95834C5.02287 3.85042 4.98438 3.72354 4.98438 3.59375C4.98438 3.4197 5.05352 3.25278 5.17659 3.12971C5.29966 3.00664 5.46658 2.9375 5.64063 2.9375ZM6.1875 9.0625H5.75C5.63397 9.0625 5.52269 9.01641 5.44064 8.93436C5.3586 8.85231 5.3125 8.74103 5.3125 8.625V6C5.19647 6 5.08519 5.95391 5.00314 5.87186C4.9211 5.78981 4.875 5.67853 4.875 5.5625C4.875 5.44647 4.9211 5.33519 5.00314 5.25314C5.08519 5.17109 5.19647 5.125 5.3125 5.125H5.75C5.86603 5.125 5.97731 5.17109 6.05936 5.25314C6.14141 5.33519 6.1875 5.44647 6.1875 5.5625V8.1875C6.30353 8.1875 6.41481 8.23359 6.49686 8.31564C6.57891 8.39769 6.625 8.50897 6.625 8.625C6.625 8.74103 6.57891 8.85231 6.49686 8.93436C6.41481 9.01641 6.30353 9.0625 6.1875 9.0625Z" fill="#9CA3AF"/>
</svg>
