<svg width="110" height="111" viewBox="0 0 110 111" fill="none" xmlns="http://www.w3.org/2000/svg">
<rect opacity="0.1" width="110" height="110" rx="54.9999" transform="matrix(1 0 -1.68587e-06 1 0.000152588 0.708984)" fill="#18A187"/>
<path d="M7.4268 55.6459C7.4268 29.503 29.0707 8.30994 55.2136 8.30994C81.3566 8.30994 103 29.503 103 55.6459C103 81.7888 81.3566 102.982 55.2136 102.982C29.0707 102.982 7.4268 81.7888 7.4268 55.6459Z" fill="#18A187"/>
<path d="M55.6948 41.3353H65.0588V31.9713H36.9735V50.6971H46.3375V41.3353H55.6948Z" fill="white"/>
<path d="M74.4231 41.3355H65.0591V50.6995H74.4231V41.3355Z" fill="white"/>
<path d="M74.4231 60.0623H65.0591V69.4263H74.4231V60.0623Z" fill="white"/>
<path d="M46.3374 69.4263V60.0623H36.9733V78.7881H65.0587V69.424H46.3374V69.4263Z" fill="white"/>
<path d="M55.6955 50.6993H46.3383V60.0633H65.0596V50.6993H55.6955Z" fill="white"/>
</svg>
