<svg width="114" height="128" viewBox="0 0 114 128" fill="none" xmlns="http://www.w3.org/2000/svg">
<g filter="url(#filter0_dd_3414_18852)">
<g opacity="0.25">
<path d="M108 66.8207C108 78.2942 104.208 88.8857 97.8131 97.4066C94.8932 101.299 91.428 104.759 87.5332 107.674C87.2743 107.865 87.0155 108.056 86.7542 108.244C78.379 114.27 68.1041 117.821 57 117.821C46.2025 117.821 36.1864 114.464 27.9419 108.737C27.6805 108.556 27.4217 108.373 27.1629 108.184C22.9489 105.141 19.2199 101.47 16.1115 97.3061C9.76168 88.8027 6 78.2489 6 66.8207C6 38.6546 28.8339 15.8207 57 15.8207C85.1661 15.8207 108 38.6546 108 66.8207Z" fill="#40902A"/>
</g>
<path d="M81.9191 66.1118C81.9191 73.5158 70.7052 79.5177 56.8724 79.5177C43.0396 79.5177 31.8257 73.5158 31.8257 66.1118C31.8257 58.7081 43.0396 53.8528 56.8724 53.8528C70.7052 53.8528 81.9191 58.7081 81.9191 66.1118Z" fill="#18A187"/>
<path d="M74.2031 77.1679C74.2031 83.9641 66.3257 89.4736 56.6084 89.4736C46.8911 89.4736 39.0137 83.9641 39.0137 77.1679C39.0137 70.3718 46.8911 65.915 56.6084 65.915C66.3257 65.915 74.2031 70.3718 74.2031 77.1679Z" fill="#17345C"/>
<path d="M91.0762 84.5675C96.7703 91.72 94.8522 102.196 87.5328 107.674C87.274 107.865 87.0152 108.056 86.7539 108.244C78.3787 114.27 68.1038 117.821 56.9997 117.821C46.2021 117.821 36.1861 114.463 27.9415 108.737C27.6802 108.556 27.4214 108.372 27.1626 108.184C19.278 102.49 17.4142 91.2589 23.5747 83.7335C27.0865 79.4436 31.6997 75.7212 37.7576 73.2496C40.0106 72.3304 42.5472 73.1642 44.0708 75.0615C45.2117 76.4824 46.9356 77.309 48.7578 77.309H65.5681C67.3326 77.309 69.0276 76.6206 70.2924 75.3903C72.0839 73.6477 74.7098 72.9891 77.0083 73.9702C83.1487 76.591 87.7045 80.3322 91.0762 84.5675Z" fill="#18A187"/>
<path d="M27.9419 102.477V108.737C27.6806 108.556 27.4218 108.372 27.163 108.184V102.477C27.163 102.261 27.3364 102.088 27.5525 102.088C27.7661 102.088 27.9419 102.261 27.9419 102.477Z" fill="#17345C"/>
<path d="M87.5338 102.477V107.674C87.275 107.865 87.0161 108.056 86.7548 108.244V102.477C86.7548 102.261 86.9282 102.088 87.1443 102.088C87.3579 102.088 87.5338 102.261 87.5338 102.477Z" fill="#17345C"/>
<mask id="mask0_3414_18852" style="mask-type:luminance" maskUnits="userSpaceOnUse" x="48" y="37" width="18" height="46">
<path d="M57.2819 37.1695H56.7175C52.1548 37.1695 48.4562 40.4075 48.4562 44.4016V75.7612C48.4562 79.7554 52.1548 82.9934 56.7175 82.9934H57.2819C61.8447 82.9934 65.5433 79.7554 65.5433 75.7612V44.4016C65.5433 40.4075 61.8447 37.1695 57.2819 37.1695Z" fill="white"/>
</mask>
<g mask="url(#mask0_3414_18852)">
<path d="M56.9308 83.0096C52.2261 83.0096 48.4124 79.1957 48.4124 74.4909V45.8997C48.4124 41.1949 52.2261 37.381 56.9308 37.381C61.6355 37.381 65.4492 41.1949 65.4492 45.8997V74.4909C65.4492 79.1957 61.6355 83.0096 56.9308 83.0096Z" fill="#FFD9BA"/>
<path d="M65.4496 45.8977V69.044C59.1867 68.6437 53.365 66.6081 48.4138 63.3527V45.8977C48.4138 41.1943 52.2282 37.3801 56.9317 37.3801C59.285 37.3801 61.4161 38.3327 62.9564 39.8763C64.4968 41.4166 65.4496 43.5442 65.4496 45.8977Z" fill="#F4C7A6"/>
</g>
<path d="M41.9986 69.098C49.6905 71.3598 43.0084 82.9313 36.3687 78.4374C35.6559 77.9549 35.0626 77.3893 34.621 76.7187C34.0505 75.8524 33.962 74.7654 34.2077 73.7576C34.45 72.7632 34.9375 71.4276 35.9168 70.1808" fill="#18A187"/>
<path d="M55.0398 82.9807C55.0237 82.9807 55.0076 82.9792 54.9916 82.9747C52.8632 82.4181 50.3554 82.0628 47.9306 81.7201C42.1094 80.8966 36.0899 80.0453 34.1744 76.3326C34.1262 76.2391 34.1631 76.1238 34.2571 76.0758C34.3493 76.0278 34.4652 76.0635 34.5144 76.1577C36.3392 79.6947 42.2591 80.5318 47.9841 81.3414C50.4197 81.6866 52.9383 82.0425 55.088 82.6051C55.1903 82.6317 55.2511 82.7357 55.2245 82.8385C55.2021 82.9244 55.1245 82.9807 55.0398 82.9807Z" fill="#15A600"/>
<path d="M56.6811 82.9808C56.6105 82.9808 56.5424 82.9413 56.5093 82.8737C55.2654 80.3245 50.5388 71.8083 41.9438 69.2812C41.8427 69.2516 41.7849 69.1448 41.8146 69.0437C41.8442 68.9435 41.9515 68.8864 42.0518 68.9146C50.7966 71.4859 55.5913 80.1215 56.8528 82.7064C56.8987 82.8014 56.8595 82.9155 56.7646 82.9619C56.7374 82.9748 56.7093 82.9808 56.6811 82.9808Z" fill="#15A600"/>
<path d="M52.3763 80.1132C52.3763 80.5506 52.0107 80.9054 51.5594 80.9054C51.1084 80.9054 50.7425 80.5506 50.7425 80.1132C50.7425 79.6757 51.1084 79.3209 51.5594 79.3209C52.0107 79.3209 52.3763 79.6757 52.3763 80.1132Z" fill="#15A600"/>
<path d="M72.229 69.0979C64.5371 71.3597 71.2191 82.9311 77.8588 78.4372C78.5716 77.9548 79.1648 77.3892 79.6064 76.7187C80.177 75.8524 80.2655 74.7652 80.0198 73.7573C79.7775 72.7629 79.29 71.4274 78.3107 70.1807" fill="#18A187"/>
<path d="M57.5451 82.9807C57.517 82.9807 57.4889 82.9744 57.4617 82.9616C57.3667 82.9151 57.3273 82.8013 57.3733 82.7063C58.6347 80.1214 63.4294 71.4858 72.1745 68.9145C72.2783 68.8856 72.3823 68.9434 72.4117 69.0436C72.4413 69.1447 72.3835 69.2512 72.2825 69.2809C63.6875 71.808 58.9609 80.3242 57.717 82.8734C57.6841 82.941 57.616 82.9807 57.5451 82.9807Z" fill="#279571"/>
<path d="M61.8509 80.1132C61.8509 80.5507 62.2165 80.9055 62.6678 80.9055C63.1189 80.9055 63.4847 80.5507 63.4847 80.1132C63.4847 79.6757 63.1189 79.3209 62.6678 79.3209C62.2165 79.3209 61.8509 79.6757 61.8509 80.1132Z" fill="#15A600"/>
<path d="M51.8382 110.493C51.6513 110.493 51.4892 110.354 51.4648 110.164C51.4608 110.133 51.069 107.014 51.0866 103.197C51.1107 98.0419 51.8292 94.1294 53.2228 91.5674C54.746 88.7663 55.1755 86.2759 54.499 84.1664C53.67 81.582 51.4173 80.4635 51.3947 80.4524C51.2077 80.3617 51.1293 80.1363 51.2196 79.9494C51.31 79.7619 51.5349 79.6838 51.7219 79.7735C51.8259 79.8232 54.2786 81.0304 55.2127 83.9236C55.9607 86.2397 55.5134 88.9324 53.8846 91.9274C50.6926 97.7966 52.197 109.947 52.2126 110.069C52.2387 110.275 52.0928 110.464 51.8862 110.49C51.8701 110.492 51.854 110.493 51.8382 110.493Z" fill="#F1D9CD"/>
<path d="M63.0978 110.493C63.088 110.493 63.078 110.493 63.0682 110.492C62.8606 110.476 62.7056 110.294 62.7217 110.087C62.7252 110.039 63.0189 105.182 57.9215 99.5237C55.3624 96.6832 55.3637 92.3655 57.9245 87.0365C59.8257 83.0799 62.5033 79.9007 62.5299 79.869C62.6641 79.7099 62.9016 79.6906 63.0612 79.8253C63.22 79.9597 63.2396 80.1977 63.1051 80.3565C63.0013 80.4791 52.7833 92.6941 58.4813 99.0191C63.812 104.936 63.4896 109.935 63.4733 110.145C63.4579 110.343 63.2926 110.493 63.0978 110.493Z" fill="#F1D9CD"/>
<path d="M82.1746 42.7278C82.1746 44.9871 80.343 46.8187 78.0837 46.8187C75.8245 46.8187 73.9929 44.9871 73.9929 42.7278C73.9929 40.4686 75.8245 38.637 78.0837 38.637C80.343 38.637 82.1746 40.4686 82.1746 42.7278Z" fill="#F5C8A6"/>
<path d="M40.0077 42.7278C40.0077 44.9871 38.1761 46.8187 35.9169 46.8187C33.6576 46.8187 31.826 44.9871 31.826 42.7278C31.826 40.4686 33.6576 38.637 35.9169 38.637C38.1761 38.637 40.0077 40.4686 40.0077 42.7278Z" fill="#F5C8A6"/>
<path d="M67.1869 60.8491C61.0586 65.2528 52.8036 65.2528 46.6753 60.8491C39.8777 55.9642 35.8476 48.1057 35.8476 39.735V29.7096C35.8476 18.0655 45.287 8.62616 56.9311 8.62616C68.5752 8.62616 78.0146 18.0655 78.0146 29.7096V39.735C78.0146 48.1057 73.9845 55.9642 67.1869 60.8491Z" fill="#FFD9BA"/>
<path d="M56.9306 56.3919C53.8276 56.3919 51.312 53.8765 51.312 50.7735H62.5492C62.5492 53.8765 60.0336 56.3919 56.9306 56.3919Z" fill="white"/>
<path d="M56.9316 47.168C55.597 47.168 54.5529 46.0181 54.6816 44.6899L55.1442 39.9105C55.2334 38.9901 56.0069 38.2877 56.9316 38.2877C57.8563 38.2877 58.6297 38.9901 58.7189 39.9105L59.1815 44.6899C59.3102 46.0181 58.2661 47.168 56.9316 47.168Z" fill="#F4C7A6"/>
<path d="M47.9695 42.1745C46.6183 42.1745 45.5233 41.0795 45.5233 39.7283C45.5233 38.3772 46.6183 37.2821 47.9695 37.2821C49.3206 37.2821 50.4157 38.3772 50.4157 39.7283C50.4157 41.0795 49.3206 42.1745 47.9695 42.1745Z" fill="#563C00"/>
<path d="M65.5182 42.1746C64.1671 42.1746 63.072 41.0795 63.072 39.7284C63.072 38.3772 64.1671 37.2822 65.5182 37.2822C66.8694 37.2822 67.9644 38.3772 67.9644 39.7284C67.9644 41.0795 66.8694 42.1746 65.5182 42.1746Z" fill="#563C00"/>
<path d="M49.905 34.1687H45.7051C45.0633 34.1687 44.5434 33.6485 44.5434 33.0068C44.5434 32.365 45.0633 31.8448 45.7051 31.8448H49.905C50.5468 31.8448 51.0667 32.365 51.0667 33.0068C51.0667 33.6485 50.5468 34.1687 49.905 34.1687Z" fill="#563C00"/>
<path d="M67.6188 34.1687H63.4189C62.7771 34.1687 62.2572 33.6485 62.2572 33.0068C62.2572 32.365 62.7771 31.8448 63.4189 31.8448H67.6188C68.2606 31.8448 68.7805 32.365 68.7805 33.0068C68.7805 33.6485 68.2606 34.1687 67.6188 34.1687Z" fill="#563C00"/>
<path d="M35.2849 37.9317C35.2849 37.9317 31.7406 18.8451 37.6203 15.8207C43.5 12.7963 44.5433 19.3949 44.5433 19.3949C44.5433 19.3949 39.5172 38.1362 35.996 37.8829C35.6492 37.8829 35.2849 37.9317 35.2849 37.9317Z" fill="#563C00"/>
<path d="M79.7385 38.2314C79.7385 38.2314 83.6502 19.2864 76.9038 15.8209C70.1574 12.3555 68.1062 19.3952 68.1062 19.3952C68.1062 19.3952 71.9847 32.9817 77.6129 37.9106C79.0616 37.8834 79.7385 38.2314 79.7385 38.2314Z" fill="#563C00"/>
<path d="M44.9549 23.196C44.9549 23.196 61.9335 28.8272 73.7681 19.6947C81.7865 13.5071 81.248 7.16933 79.3443 5.96946C75.1838 3.3471 72.8441 8.44936 72.8441 8.44936C72.8441 8.44936 75.1253 2.25955 68.5186 2.09647C64.6147 2.00023 63.017 5.81292 63.017 5.81292C63.017 5.81292 62.7097 5.03495 61.9926 4.14893C59.3664 0.904896 54.9964 1.57808 52.0876 4.53741C46.8609 9.85452 40.1462 8.31844 38.0226 16.0074C36.5702 21.2662 44.9549 23.196 44.9549 23.196Z" fill="#563C00"/>
</g>
<defs>
<filter id="filter0_dd_3414_18852" x="0" y="0" width="114" height="127.821" filterUnits="userSpaceOnUse" color-interpolation-filters="sRGB">
<feFlood flood-opacity="0" result="BackgroundImageFix"/>
<feColorMatrix in="SourceAlpha" type="matrix" values="0 0 0 0 0 0 0 0 0 0 0 0 0 0 0 0 0 0 127 0" result="hardAlpha"/>
<feMorphology radius="2" operator="erode" in="SourceAlpha" result="effect1_dropShadow_3414_18852"/>
<feOffset dy="2"/>
<feGaussianBlur stdDeviation="2"/>
<feColorMatrix type="matrix" values="0 0 0 0 0.0627451 0 0 0 0 0.0941176 0 0 0 0 0.156863 0 0 0 0.02 0"/>
<feBlend mode="normal" in2="BackgroundImageFix" result="effect1_dropShadow_3414_18852"/>
<feColorMatrix in="SourceAlpha" type="matrix" values="0 0 0 0 0 0 0 0 0 0 0 0 0 0 0 0 0 0 127 0" result="hardAlpha"/>
<feMorphology radius="2" operator="erode" in="SourceAlpha" result="effect2_dropShadow_3414_18852"/>
<feOffset dy="4"/>
<feGaussianBlur stdDeviation="4"/>
<feColorMatrix type="matrix" values="0 0 0 0 0.0627451 0 0 0 0 0.0941176 0 0 0 0 0.156863 0 0 0 0.05 0"/>
<feBlend mode="normal" in2="effect1_dropShadow_3414_18852" result="effect2_dropShadow_3414_18852"/>
<feBlend mode="normal" in="SourceGraphic" in2="effect2_dropShadow_3414_18852" result="shape"/>
</filter>
</defs>
</svg>
